# xmcd CD database file
#
# Track frame offsets:
#	150
#	22630
#	39101
#	66350
#	87520
#	108190
#	124221
#	143141
#	161327
#	184125
#	208059
#
# Disc length: 3023 seconds
#
# Revision: 1
# Processed by: cddbd v1.5.2PL0 Copyright (c) Steve Scherf et al.
# Submitted via: CDex 1.51
#
DISCID=8c0bcd0b
DTITLE=Jennifer Lopez - Como Ama Una Mujer
DYEAR=2007
DGENRE=Pop
TTITLE0=Que Hiciste
TTITLE1=Me Haces Falta
TTITLE2=Como Ama Una Mujer
TTITLE3=Te Voy A Querer
TTITLE4=Porque Te Marchas
TTITLE5=Por Arriesgarnos
TTITLE6=Tu
TTITLE7=Amarte Es Todo
TTITLE8=Apresurate
TTITLE9=Sola
TTITLE10=Adios
EXTD=YEAR: 2007
EXTT0=
EXTT1=
EXTT2=
EXTT3=
EXTT4=
EXTT5=
EXTT6=
EXTT7=
EXTT8=
EXTT9=
EXTT10=
PLAYORDER=
